<svg xmlns="http://www.w3.org/2000/svg" xmlns:xlink="http://www.w3.org/1999/xlink" width="156.188" height="48" viewBox="0 0 156.188 48"><defs><style>.a{fill:none;}.b{fill:#2a8cfd;}.c{clip-path:url(#a);}.d{fill:#0be7f0;}</style><clipPath id="a"><rect class="a" width="48" height="48"/></clipPath></defs><g transform="translate(-90 -240)"><path class="b" d="M11.232,0a13.04,13.04,0,0,0,9.216-3.636,11.072,11.072,0,0,0,3.132-8.316A11.722,11.722,0,0,0,20.232-20.7c-3.1-2.988-7.128-3.312-9.54-3.312H2.52V0ZM8.748-18.72H10.26a7,7,0,0,1,4.968,1.512A7.178,7.178,0,0,1,17.1-11.952,6.541,6.541,0,0,1,15.264-7.02a7.17,7.17,0,0,1-5.256,1.728H8.748ZM27.54-24.012V0h6.228V-9.216L39.744,0h7.74L39.96-9.828a6.726,6.726,0,0,0,3.312-1.656,6.929,6.929,0,0,0,1.908-5,7.9,7.9,0,0,0-2.052-5.4,7.758,7.758,0,0,0-5.868-2.124Zm6.228,4.824h1.188a4.228,4.228,0,0,1,2.988.936,2.831,2.831,0,0,1,.828,2.016,2.99,2.99,0,0,1-.792,2.016,4.68,4.68,0,0,1-3.024.972H33.768Zm16.344-4.824V0H56.34V-24.012Zm8.748,0L68.94,0H73.8L84.024-24.012H77.256L71.424-9.4l-5.76-14.616Zm41.328,0H86.544V0h13.644V-5.292H92.772v-4.14h7.02v-5.292h-7.02v-4h7.416Z" transform="translate(146 276)"/><g class="c" transform="translate(90 240)"><path class="b" d="M32,40H8a8.009,8.009,0,0,1-8-8V22H8v7a3,3,0,0,0,3,3H29a3,3,0,0,0,3-3V22h8V32A8.009,8.009,0,0,1,32,40Zm8-22H32V11a3,3,0,0,0-3-3H11a3,3,0,0,0-3,3v7H0V8A8.009,8.009,0,0,1,8,0H32a8.009,8.009,0,0,1,8,8V18Z" transform="translate(4 4.001)"/><rect class="d" width="16" height="16" rx="2" transform="translate(16 16)"/></g></g></svg>